<?xml version="1.0" encoding="utf-8"?>
<!-- Generator: Adobe Illustrator 23.0.1, SVG Export Plug-In . SVG Version: 6.00 Build 0)  -->
<svg version="1.1" id="RichEdit" xmlns="http://www.w3.org/2000/svg" xmlns:xlink="http://www.w3.org/1999/xlink" x="0px" y="0px"
	 viewBox="0 0 32 32" style="enable-background:new 0 0 32 32;" xml:space="preserve">
<style type="text/css">
	.Black{fill:#727272;}
	.Blue{fill:#1177D7;}
	.st0{opacity:0.5;}
</style>
<g class="st0">
	<path class="Black" d="M22,10H10V8h12V10z M20,12H10v2h10V12z M16,16h-6v2h6V16z"/>
</g>
<path class="Black" d="M26,22.8V28H6V4h20v5.2l2-2V3c0-0.5-0.5-1-1-1H5C4.5,2,4,2.5,4,3v26c0,0.5,0.5,1,1,1h22c0.5,0,1-0.5,1-1v-8.2
	L26,22.8z"/>
<path class="Blue" d="M29,17l-8,8l-4-4l8-8L29,17z M30,16l1.7-1.7c0.4-0.4,0.4-1,0-1.3L29,10.3c-0.4-0.4-1-0.4-1.3,0L26,12L30,16z
	 M16,22v4h4L16,22z"/>
</svg>
