<?xml version="1.0" encoding="utf-8"?>
<!-- Generator: Adobe Illustrator 21.1.0, SVG Export Plug-In . SVG Version: 6.00 Build 0)  -->
<svg version="1.1" id="Layer_1" xmlns="http://www.w3.org/2000/svg" xmlns:xlink="http://www.w3.org/1999/xlink" x="0px" y="0px"
	 viewBox="0 0 32 32" style="enable-background:new 0 0 32 32;" xml:space="preserve">
<style type="text/css">
	.Yellow{fill:#FFB115;}
	.Red{fill:#D11C1C;}
	.Blue{fill:#1177D7;}
	.Green{fill:#039C23;}
	.Black{fill:#727272;}
	.White{fill:#FFFFFF;}
	.st0{opacity:0.75;}
</style>
  <g id="MultiPageView" style="" transform="matrix(1, 0.000239, 0, 1, 0, -0.001673)">
    <path class="Black" d="M 9.497 2.853 L 3.526 2.853 C 3.278 2.853 3.029 3.127 3.029 3.401 L 3.029 14.348 C 3.029 14.622 3.278 14.895 3.526 14.895 L 9.497 14.895 C 9.745 14.895 9.994 14.622 9.994 14.348 L 9.994 3.401 C 9.994 3.127 9.745 2.853 9.497 2.853 Z M 8.999 13.8 L 4.024 13.8 L 4.024 3.948 L 8.999 3.948 L 8.999 13.8 Z" style=""></path>
    <path class="Blue" d="M 8.005 7.233 L 5.019 7.233 L 5.019 6.138 L 8.005 6.138 L 8.005 7.233 Z M 8.005 8.327 L 5.019 8.327 L 5.019 9.422 L 8.005 9.422 L 8.005 8.327 Z M 8.005 10.517 L 5.019 10.517 L 5.019 11.611 L 8.005 11.611 L 8.005 10.517 Z" style=""></path>
    <path class="Black" d="M 19.049 2.852 L 13.078 2.852 C 12.83 2.852 12.581 3.125 12.581 3.399 L 12.581 14.346 C 12.581 14.62 12.83 14.893 13.078 14.893 L 19.049 14.893 C 19.297 14.893 19.546 14.62 19.546 14.346 L 19.546 3.399 C 19.546 3.125 19.297 2.852 19.049 2.852 Z M 18.551 13.798 L 13.576 13.798 L 13.576 3.947 L 18.551 3.947 L 18.551 13.798 Z" style=""></path>
    <path class="Blue" d="M 17.557 7.231 L 14.571 7.231 L 14.571 6.136 L 17.557 6.136 L 17.557 7.231 Z M 17.557 8.325 L 14.571 8.325 L 14.571 9.42 L 17.557 9.42 L 17.557 8.325 Z M 17.557 10.515 L 14.571 10.515 L 14.571 11.609 L 17.557 11.609 L 17.557 10.515 Z" style=""></path>
    <path class="Black" d="M 28.945 2.85 L 22.974 2.85 C 22.726 2.85 22.477 3.124 22.477 3.397 L 22.477 14.345 C 22.477 14.618 22.726 14.892 22.974 14.892 L 28.945 14.892 C 29.193 14.892 29.442 14.618 29.442 14.345 L 29.442 3.397 C 29.442 3.124 29.193 2.85 28.945 2.85 Z M 28.447 13.797 L 23.472 13.797 L 23.472 3.945 L 28.447 3.945 L 28.447 13.797 Z" style=""></path>
    <path class="Blue" d="M 27.453 7.229 L 24.467 7.229 L 24.467 6.134 L 27.453 6.134 L 27.453 7.229 Z M 27.453 8.323 L 24.467 8.323 L 24.467 9.418 L 27.453 9.418 L 27.453 8.323 Z M 27.453 10.513 L 24.467 10.513 L 24.467 11.608 L 27.453 11.608 L 27.453 10.513 Z" style=""></path>
    <path class="Black" d="M 9.497 17.191 L 3.526 17.191 C 3.278 17.191 3.029 17.463 3.029 17.735 L 3.029 28.617 C 3.029 28.889 3.278 29.161 3.526 29.161 L 9.497 29.161 C 9.745 29.161 9.994 28.889 9.994 28.617 L 9.994 17.735 C 9.994 17.463 9.745 17.191 9.497 17.191 Z M 8.999 28.073 L 4.024 28.073 L 4.024 18.279 L 8.999 18.279 L 8.999 28.073 Z" style=""></path>
    <path class="Blue" d="M 8.005 21.545 L 5.019 21.545 L 5.019 20.456 L 8.005 20.456 L 8.005 21.545 Z M 8.005 22.632 L 5.019 22.632 L 5.019 23.721 L 8.005 23.721 L 8.005 22.632 Z M 8.005 24.809 L 5.019 24.809 L 5.019 25.897 L 8.005 25.897 L 8.005 24.809 Z" style=""></path>
    <path class="Black" d="M 19.049 17.189 L 13.078 17.189 C 12.83 17.189 12.581 17.461 12.581 17.734 L 12.581 28.615 C 12.581 28.887 12.83 29.159 13.078 29.159 L 19.049 29.159 C 19.297 29.159 19.546 28.887 19.546 28.615 L 19.546 17.734 C 19.546 17.461 19.297 17.189 19.049 17.189 Z M 18.551 28.071 L 13.576 28.071 L 13.576 18.278 L 18.551 18.278 L 18.551 28.071 Z" style=""></path>
    <path class="Blue" d="M 17.557 21.543 L 14.571 21.543 L 14.571 20.455 L 17.557 20.455 L 17.557 21.543 Z M 17.557 22.631 L 14.571 22.631 L 14.571 23.719 L 17.557 23.719 L 17.557 22.631 Z M 17.557 24.807 L 14.571 24.807 L 14.571 25.895 L 17.557 25.895 L 17.557 24.807 Z" style=""></path>
    <path class="Black" d="M 28.945 17.188 L 22.974 17.188 C 22.726 17.188 22.477 17.46 22.477 17.732 L 22.477 28.613 C 22.477 28.885 22.726 29.158 22.974 29.158 L 28.945 29.158 C 29.193 29.158 29.442 28.885 29.442 28.613 L 29.442 17.732 C 29.442 17.46 29.193 17.188 28.945 17.188 Z M 28.447 28.069 L 23.472 28.069 L 23.472 18.276 L 28.447 18.276 L 28.447 28.069 Z" style=""></path>
    <path class="Blue" d="M 27.453 21.541 L 24.467 21.541 L 24.467 20.453 L 27.453 20.453 L 27.453 21.541 Z M 27.453 22.629 L 24.467 22.629 L 24.467 23.717 L 27.453 23.717 L 27.453 22.629 Z M 27.453 24.806 L 24.467 24.806 L 24.467 25.893 L 27.453 25.893 L 27.453 24.806 Z" style=""></path>
  </g>
</svg>