<?xml version="1.0" encoding="utf-8"?>
<svg version="1.1" id="Layer_1" x="0px" y="0px" viewBox="0 0 32 32" xmlns="http://www.w3.org/2000/svg">
  <style type="text/css">
	.Green{fill:#039C23;}
	.Black{fill:#727272;}
	.Red{fill:#D11C1C;}
	.Yellow{fill:#FFB115;}
	.Blue{fill:#1177D7;}
	.White{fill:#FFFFFF;}
	.st0{opacity:0.5;}
	.st1{opacity:0.75;}
</style>
  <g id="GridClearSorting">
    <polygon class="Black" points="2.028 21.988 8.028 29.988 14.028 21.988 10.028 21.988 10.028 1.988 6.028 1.988 6.028 21.988"/>
    <path class="Red" d="M 14.516 7.233 L 12.918 5.622 L 8.011 10.454 L 3.218 5.506 L 1.506 7.233 L 6.413 12.065 L 1.62 16.897 L 3.218 18.508 L 8.011 13.676 L 12.805 18.508 L 14.402 16.897 L 9.609 12.065 L 14.516 7.233 Z" style=""/>
    <path class="Red" d="M 24.329 11.612 L 19.729 11.612 L 19.029 14.012 L 16.029 14.012 L 20.429 2.012 L 23.629 2.012 L 28.029 14.012 L 25.029 14.012 L 24.329 11.612 Z M 20.529 9.212 L 23.529 9.212 L 22.029 4.312 L 20.529 9.212 Z"/>
    <path class="Blue" d="M 16.037 18.002 L 28.037 18.002 L 28.037 20.402 L 20.837 27.602 L 28.037 27.602 L 28.037 30.002 L 16.037 30.002 L 16.037 27.602 L 23.237 20.402 L 16.037 20.402 L 16.037 18.002 Z"/>
  </g>
</svg>