<?xml version="1.0" encoding="utf-8"?>
<!-- Generator: Adobe Illustrator 21.0.2, SVG Export Plug-In . SVG Version: 6.00 Build 0)  -->
<!DOCTYPE svg PUBLIC "-//W3C//DTD SVG 1.1//EN" "http://www.w3.org/Graphics/SVG/1.1/DTD/svg11.dtd">
<svg version="1.1" xmlns="http://www.w3.org/2000/svg" xmlns:xlink="http://www.w3.org/1999/xlink" x="0px" y="0px"
	 viewBox="0 0 32 32" xml:space="preserve">
<style type="text/css">
	.Black{fill:#727272;}
	.st0{opacity:0.35;fill:#727272;}
	.st1{fill:#D11C1C;}
	.st2{fill:#1177D7;}
	.st3{opacity:0.5;}
	.st4{fill:#727272;}
	.st5{fill:#FFB115;}
	.st6{fill:#039C23;}
	.st7{opacity:0.25;}
</style>
<g id="Background">
	<path class="Black" d="M18.6,10c0.3-2.5,0.6-3.4,0.8-3.7c0.6-1,2.2-0.2,3,0l4.1-4c-3.6-0.5-7.1-1.1-9.8,2c-1.2,1.4-2,3.3-2.3,5.7
		l-0.2,2H10l-4,4h7.7L13,23c-0.2,1.9-0.8,3.6-3,2.9l-0.8-0.3l-3.7,3.3l2.3,0.8c2.4,0.8,4.9-0.1,6.7-1.7c1-0.9,1.7-1.9,2.2-3
		c0.4-1.1,0.7-2.5,0.9-4.4L18,16h4l4-4h-7.6L18.6,10z"/>
</g>
<g id="Layer_2">
</g>
</svg>
