<?xml version="1.0" encoding="utf-8"?>
<!-- Generator: Adobe Illustrator 21.0.2, SVG Export Plug-In . SVG Version: 6.00 Build 0)  -->
<!DOCTYPE svg PUBLIC "-//W3C//DTD SVG 1.1//EN" "http://www.w3.org/Graphics/SVG/1.1/DTD/svg11.dtd">
<svg version="1.1" xmlns="http://www.w3.org/2000/svg" xmlns:xlink="http://www.w3.org/1999/xlink" x="0px" y="0px"
	 viewBox="0 0 32 32" xml:space="preserve">
<style type="text/css">
	.Blue{fill:#1177D7;}
	.Black{fill:#727272;}
	.st0{opacity:0.35;fill:#727272;}
	.st1{fill:#D11C1C;}
	.st2{opacity:0.5;}
	.st3{fill:#727272;}
</style>
<g id="Background">
	<g class="st2">
		<path class="Black" d="M2,0v30h28V0H2z M28,28H4V2h24V28z"/>
	</g>
	<path class="Blue" d="M25,10H7c-0.6,0-1-0.4-1-1V5c0-0.6,0.4-1,1-1h18c0.6,0,1,0.4,1,1v4C26,9.6,25.6,10,25,10z"/>
	<path class="Blue" d="M25,18H7c-0.6,0-1-0.4-1-1v-4c0-0.6,0.4-1,1-1h18c0.6,0,1,0.4,1,1v4C26,17.6,25.6,18,25,18z"/>
	<path class="Blue" d="M25,26H7c-0.6,0-1-0.4-1-1v-4c0-0.6,0.4-1,1-1h18c0.6,0,1,0.4,1,1v4C26,25.6,25.6,26,25,26z"/>
</g>
<g id="Layer_2">
</g>
</svg>
