<?xml version="1.0" encoding="utf-8"?>
<!-- Generator: Adobe Illustrator 21.0.2, SVG Export Plug-In . SVG Version: 6.00 Build 0)  -->
<!DOCTYPE svg PUBLIC "-//W3C//DTD SVG 1.1//EN" "http://www.w3.org/Graphics/SVG/1.1/DTD/svg11.dtd">
<svg version="1.1" xmlns="http://www.w3.org/2000/svg" xmlns:xlink="http://www.w3.org/1999/xlink" x="0px" y="0px"
	 viewBox="0 0 32 32" xml:space="preserve">
<style type="text/css">
	.Blue{fill:#1177D7;}
	.Black{fill:#727272;}
	.st0{opacity:0.35;fill:#727272;}
	.st1{fill:#D11C1C;}
	.st2{opacity:0.5;}
	.st3{fill:#727272;}
</style>
<g id="Background">
	<path class="st0" d="M26,30H2c-1.1,0-2-0.9-2-2V16c0-1.1,0.9-2,2-2h24c1.1,0,2,0.9,2,2v12C28,29.1,27.1,30,26,30z"/>
	<path class="Blue" d="M28,10h-8c-1.1,0-2-0.9-2-2V4c0-1.1,0.9-2,2-2h8c1.1,0,2,0.9,2,2v4C30,9.1,29.1,10,28,10z"/>
	<path class="Black" d="M16,18l-6,8l-6-8h4c0-4.6,1.8-8.6,3.9-11.5c0.9-1.2,2.8-1.1,3.5,0.3l0,0c0.4,0.7,0.2,1.6-0.3,2.2
		c-1.8,2.2-3.1,5.6-3.1,9H16z"/>
</g>
</svg>
