<?xml version="1.0" encoding="utf-8"?>
<!-- Generator: Adobe Illustrator 21.0.2, SVG Export Plug-In . SVG Version: 6.00 Build 0)  -->
<!DOCTYPE svg PUBLIC "-//W3C//DTD SVG 1.1//EN" "http://www.w3.org/Graphics/SVG/1.1/DTD/svg11.dtd">
<svg version="1.1" xmlns="http://www.w3.org/2000/svg" xmlns:xlink="http://www.w3.org/1999/xlink" x="0px" y="0px"
	 viewBox="0 0 32 32" xml:space="preserve">
<style type="text/css">
	.Blue{fill:#1177D7;}
	.Black{fill:#727272;}
	.st0{opacity:0.35;fill:#727272;}
	.st1{fill:#D11C1C;}
	.st2{opacity:0.5;}
	.st3{fill:#727272;}
</style>
<g id="Background">
	<g class="st2">
		<path class="Black" d="M24,20H14c-1.1,0-2-0.9-2-2V8c0-1.1,0.9-2,2-2h10c1.1,0,2,0.9,2,2v10C26,19.1,25.1,20,24,20z"/>
	</g>
	<path class="Blue" d="M18,26H8c-1.1,0-2-0.9-2-2V14c0-1.1,0.9-2,2-2h10c1.1,0,2,0.9,2,2v10C20,25.1,19.1,26,18,26z"/>
	<path class="st3" d="M2,29v-3H0v4c0,1.1,0.9,2,2,2h4v-2H3C2.4,30,2,29.6,2,29z"/>
	<path class="st3" d="M3,2h3V0H2C0.9,0,0,0.9,0,2v4h2V3C2,2.4,2.4,2,3,2z"/>
	<path class="st3" d="M30,3v3h2V2c0-1.1-0.9-2-2-2h-4v2h3C29.6,2,30,2.4,30,3z"/>
	<path class="st3" d="M29,30h-3v2h4c1.1,0,2-0.9,2-2v-4h-2v3C30,29.6,29.6,30,29,30z"/>
</g>
<g id="Layer_2">
</g>
</svg>
