<svg version="1.1" id="Layer_1" xmlns="http://www.w3.org/2000/svg" xmlns:xlink="http://www.w3.org/1999/xlink" x="0px" y="0px"
	 viewBox="0 0 16 16" style="enable-background:new 0 0 16 16;" xml:space="preserve">
<style type="text/css">
	.White{fill:#FFFFFF;}
	.Green{fill:#039C23;}
	.Blue{fill:#1177D7;}
	.Yellow{fill:#FFB115;}
	.Black{fill:#727272;}
	.Red{fill:#D11C1C;}
	.st0{opacity:0.75;}
	.st1{opacity:0.5;}
</style>
<g id="Add_1_">
	<path class="Green" d="M15,6h-5V1c0-0.6-0.5-1-1-1H7C6.5,0,6,0.4,6,1v5H1C0.5,6,0,6.4,0,7v2c0,0.6,0.5,1,1,1h5v5c0,0.6,0.5,1,1,1h2
		c0.5,0,1-0.4,1-1v-5h5c0.5,0,1-0.4,1-1V7C16,6.4,15.5,6,15,6z"/>
</g>
</svg>
