<?xml version="1.0" encoding="utf-8"?>
<!-- Generator: Adobe Illustrator 21.1.0, SVG Export Plug-In . SVG Version: 6.00 Build 0)  -->
<svg version="1.1" id="Layer_1" xmlns="http://www.w3.org/2000/svg" xmlns:xlink="http://www.w3.org/1999/xlink" x="0px" y="0px"
	 viewBox="0 0 32 32" style="enable-background:new 0 0 32 32;" xml:space="preserve">
<style type="text/css">
	.Blue{fill:#1177D7;}
	.Black{fill:#727272;}
	.st0{fill:#1177D7;}
	.st1{opacity:0.5;}
</style>
<g>
	<g>
		<path class="st0" d="M31,2H3C2.4,2,2,2.4,2,3v28c0,0.6,0.4,1,1,1h28c0.6,0,1-0.4,1-1V3C32,2.4,31.6,2,31,2z M30,30H4V10h26V30z
			 M28,8c-1.1,0-2-0.9-2-2s0.9-2,2-2s2,0.9,2,2S29.1,8,28,8z"/>
	</g>
	<g>
		<g>
			<path class="Blue" d="M31,2H3C2.4,2,2,2.4,2,3v28c0,0.6,0.4,1,1,1h28c0.6,0,1-0.4,1-1V3C32,2.4,31.6,2,31,2z M30,30H4V10h26V30z
				 M28,8c-1.1,0-2-0.9-2-2s0.9-2,2-2s2,0.9,2,2S29.1,8,28,8z"/>
		</g>
		<g>
			<path class="Blue" d="M31,2H3C2.4,2,2,2.4,2,3v28c0,0.6,0.4,1,1,1h28c0.6,0,1-0.4,1-1V3C32,2.4,31.6,2,31,2z M30,30H4V10h26V30z
				 M28,8c-1.1,0-2-0.9-2-2s0.9-2,2-2s2,0.9,2,2S29.1,8,28,8z"/>
		</g>
	</g>
</g>
<g class="st1">
	<rect x="6" y="12" class="Black" width="4" height="4"/>
	<rect x="12" y="12" class="Black" width="4" height="4"/>
	<rect x="18" y="12" class="Black" width="4" height="4"/>
	<rect x="24" y="12" class="Black" width="4" height="4"/>
	<rect x="6" y="18" class="Black" width="4" height="4"/>
	<rect x="12" y="18" class="Black" width="4" height="4"/>
</g>
</svg>
