<?xml version="1.0" encoding="utf-8"?>
<svg version="1.1" id="Layer_1" xmlns="http://www.w3.org/2000/svg" xmlns:xlink="http://www.w3.org/1999/xlink" x="0px" y="0px" viewBox="0 0 32 32" style="enable-background:new 0 0 32 32;" xml:space="preserve">
<style type="text/css">
	.Yellow{fill:#FFB115;}
	.Red{fill:#D11C1C;}
	.Blue{fill:#1177D7;}
	.Green{fill:#039C23;}
	.Black{fill:#727272;}
	.White{fill:#FFFFFF;}
	.st0{opacity:0.75;}
</style>
<g id="FourPageView">
  <path class="Black" d="M 15.438 1.092 L 5.82 1.092 C 5.417 1.092 5.017 1.411 5.017 1.729 L 5.017 14.475 C 5.017 14.793 5.417 15.112 5.82 15.112 L 15.438 15.112 C 15.837 15.112 16.239 14.793 16.239 14.475 L 16.239 1.729 C 16.239 1.411 15.837 1.092 15.438 1.092 Z M 14.635 13.837 L 6.621 13.837 L 6.621 2.367 L 14.635 2.367 L 14.635 13.837 Z M 28.261 1.092 L 18.643 1.092 C 18.244 1.092 17.842 1.411 17.842 1.729 L 17.842 14.475 C 17.842 14.793 18.244 15.112 18.643 15.112 L 28.261 15.112 C 28.664 15.112 29.064 14.793 29.064 14.475 L 29.064 1.729 C 29.064 1.411 28.664 1.092 28.261 1.092 Z M 27.461 13.837 L 19.446 13.837 L 19.446 2.367 L 27.461 2.367 L 27.461 13.837 Z"/>
  <path class="Blue" d="M 13.032 6.19 L 8.222 6.19 L 8.222 4.916 L 13.032 4.916 L 13.032 6.19 Z M 13.032 7.465 L 8.222 7.465 L 8.222 8.739 L 13.032 8.739 L 13.032 7.465 Z M 13.032 10.014 L 8.222 10.014 L 8.222 11.288 L 13.032 11.288 L 13.032 10.014 Z M 25.859 6.19 L 21.049 6.19 L 21.049 4.916 L 25.859 4.916 L 25.859 6.19 Z M 25.859 7.465 L 21.049 7.465 L 21.049 8.739 L 25.859 8.739 L 25.859 7.465 Z M 25.859 10.014 L 21.049 10.014 L 21.049 11.288 L 25.859 11.288 L 25.859 10.014 Z"/>
  <path class="Black" d="M 15.438 16.637 L 5.819 16.637 C 5.418 16.637 5.017 16.954 5.017 17.273 L 5.017 29.982 C 5.017 30.301 5.418 30.618 5.819 30.618 L 15.438 30.618 C 15.838 30.618 16.239 30.301 16.239 29.982 L 16.239 17.273 C 16.239 16.954 15.838 16.637 15.438 16.637 Z M 14.636 29.347 L 6.62 29.347 L 6.62 17.908 L 14.636 17.908 L 14.636 29.347 Z M 28.262 16.637 L 18.644 16.637 C 18.243 16.637 17.842 16.954 17.842 17.273 L 17.842 29.982 C 17.842 30.301 18.243 30.618 18.644 30.618 L 28.262 30.618 C 28.664 30.618 29.064 30.301 29.064 29.982 L 29.064 17.273 C 29.064 16.954 28.664 16.637 28.262 16.637 Z M 27.462 29.347 L 19.446 29.347 L 19.446 17.908 L 27.462 17.908 L 27.462 29.347 Z"/>
  <path class="Blue" d="M 13.032 21.72 L 8.223 21.72 L 8.223 20.45 L 13.032 20.45 L 13.032 21.72 Z M 13.032 22.992 L 8.223 22.992 L 8.223 24.263 L 13.032 24.263 L 13.032 22.992 Z M 13.032 25.535 L 8.223 25.535 L 8.223 26.805 L 13.032 26.805 L 13.032 25.535 Z M 25.859 21.72 L 21.049 21.72 L 21.049 20.45 L 25.859 20.45 L 25.859 21.72 Z M 25.859 22.992 L 21.049 22.992 L 21.049 24.263 L 25.859 24.263 L 25.859 22.992 Z M 25.859 25.535 L 21.049 25.535 L 21.049 26.805 L 25.859 26.805 L 25.859 25.535 Z"/>
</g>
</svg>