<?xml version="1.0" encoding="utf-8"?>
<!-- Generator: Adobe Illustrator 23.0.1, SVG Export Plug-In . SVG Version: 6.00 Build 0)  -->
<svg version="1.1" id="Layer_1" xmlns="http://www.w3.org/2000/svg" xmlns:xlink="http://www.w3.org/1999/xlink" x="0px" y="0px"
	 viewBox="0 0 32 32" style="enable-background:new 0 0 32 32;" xml:space="preserve">
<style type="text/css">
	.Black{fill:#727272;}
	.Blue{fill:#1177D7;}
	.Green{fill:#039C23;}
	.Yellow{fill:#FFB115;}
	.Red{fill:#D11C1C;}
	.White{fill:#FFFFFF;}
	.st0{opacity:0.5;}
	.st1{opacity:0.75;}
</style>
<rect x="2" y="2" class="Blue" width="24" height="4"/>
<g class="st0">
	<path class="Black" d="M15.6,18H8v-4h9.9l-3,3L15.6,18z M26,12V8H8v4h13.4H26z M14,20H8v4h6V20z M2,12h4V8H2V12z M2,24h4v-4H2V24z
		 M2,18h4v-4H2V18z"/>
</g>
<path class="Blue" d="M32,23v-2l-2.5-0.6c-0.1-0.4-0.3-0.8-0.5-1.2l1.5-2.1l-1.6-1.6L26.8,17c-0.4-0.2-0.8-0.4-1.2-0.5L25,14h-2
	l-0.6,2.5c-0.4,0.1-0.8,0.3-1.2,0.5l-2-1.5l-1.7,1.7l1.5,2c-0.2,0.4-0.4,0.8-0.5,1.2L16,21v2l2.5,0.6c0.1,0.4,0.3,0.8,0.5,1.2
	l-1.5,2.1l1.6,1.6l2.1-1.5c0.4,0.2,0.8,0.4,1.2,0.5L23,30h2l0.6-2.5c0.4-0.1,0.8-0.3,1.2-0.5l2.1,1.5l1.6-1.6L29,24.8
	c0.2-0.4,0.4-0.8,0.5-1.2L32,23z M24,24c-1.1,0-2-0.9-2-2c0-1.1,0.9-2,2-2s2,0.9,2,2C26,23.1,25.1,24,24,24z"/>
</svg>
