<?xml version="1.0" encoding="utf-8"?>
<!-- Generator: Adobe Illustrator 23.0.1, SVG Export Plug-In . SVG Version: 6.00 Build 0)  -->
<svg version="1.1" id="Layer_1" xmlns="http://www.w3.org/2000/svg" xmlns:xlink="http://www.w3.org/1999/xlink" x="0px" y="0px"
	 viewBox="0 0 20 20" style="enable-background:new 0 0 20 20;" xml:space="preserve">
<style type="text/css">
	.Black{fill:#727272;}
	.Red{fill:#D11C1C;}
	.Yellow{fill:#FFB115;}
	.Blue{fill:#1177D7;}
</style>
<path class="Black" d="M18.42,15.59l-6.01-6.01C12.78,8.8,13,7.93,13,7c0-3.31-2.69-6-6-6C6.02,1,5.11,1.24,4.29,1.65l3.16,3.16
	c0.73,0.73,0.73,1.92,0,2.64c-0.73,0.73-1.92,0.73-2.64,0L1.65,4.29C1.24,5.11,1,6.02,1,7c0,3.31,2.69,6,6,6
	c0.93,0,1.8-0.22,2.58-0.59l6.01,6.01c0.78,0.78,2.05,0.78,2.83,0S19.19,16.37,18.42,15.59z"/>
</svg>
