<?xml version="1.0" encoding="utf-8"?>
<!-- Generator: Adobe Illustrator 24.0.0, SVG Export Plug-In . SVG Version: 6.00 Build 0)  -->
<svg version="1.1" id="Layer_1" xmlns="http://www.w3.org/2000/svg" xmlns:xlink="http://www.w3.org/1999/xlink" x="0px" y="0px"
	 viewBox="0 0 32 32" style="enable-background:new 0 0 32 32;" xml:space="preserve">
<style type="text/css">
	.Blue{fill:#1177D7;}
</style>
<path class="Blue" d="M16,2C8.3,2,2,8.3,2,16s6.3,14,14,14s14-6.3,14-14S23.7,2,16,2z M16,24c-1.1,0-2-0.9-2-2s0.9-2,2-2s2,0.9,2,2
	S17.1,24,16,24z M18.4,15.6c-0.3,0.2-1.1,0.9-1.1,1.7V18h-2.7v-0.9c0-0.6,0.3-1.8,0.9-2.4c0.3-0.3,2.4-1.7,2.4-2.8
	c0-0.6-0.3-1.7-1.8-1.7c-2,0-2.1,2.5-2.1,2.8h-3c0-0.7,0.8-5,4.9-5c4.6,0,5.1,3.1,5.1,3.7C21,14.2,18.7,15.4,18.4,15.6z"/>
</svg>
