<?xml version='1.0' encoding='UTF-8'?>
<svg x="0px" y="0px" viewBox="0 0 32 32" version="1.1" xmlns="http://www.w3.org/2000/svg" xmlns:xlink="http://www.w3.org/1999/xlink" enable-background="new 0 0 32 32" xml:space="preserve" id="Layer_1">
  <style type="text/css">
	.Blue{fill:#1177D7;}
</style>
  <path d="M23,2H9C8.4,2,8,2.4,8,3v26c0,0.6,0.4,1,1,1h14c0.6,0,1-0.4,1-1V3C24,2.4,23.6,2,23,2z M16,28  c-1.1,0-2-0.9-2-2c0-1.1,0.9-2,2-2s2,0.9,2,2C18,27.1,17.1,28,16,28z M22,22H10V4h12V22z" fill="#1177D7" class="Blue" />
</svg>