<svg version="1.1" id="Layer_1" xmlns="http://www.w3.org/2000/svg" xmlns:xlink="http://www.w3.org/1999/xlink" x="0px" y="0px"
	 viewBox="0 0 16 16" style="enable-background:new 0 0 16 16;" xml:space="preserve">
<style type="text/css">
	.Black{fill:#575755}
	.Blue{fill:#1177D7}
</style>
<path class="Black" d="M15.5,11H13V8.5C13,8.2,12.8,8,12.5,8h-1C11.2,8,11,8.2,11,8.5V11H8.5C8.2,11,8,11.2,8,11.5v1
	C8,12.8,8.2,13,8.5,13H11v2.5c0,0.3,0.2,0.5,0.5,0.5h1c0.3,0,0.5-0.2,0.5-0.5V13h2.5c0.3,0,0.5-0.2,0.5-0.5v-1
	C16,11.2,15.8,11,15.5,11z"/>
<path class="Blue" d="M4,4h5.5C9.8,4,10,4.2,10,4.5v5C10,9.8,9.8,10,9.5,10h-5C4.2,10,4,9.8,4,9.5V4z M3,3.5
	C3,3.2,3.2,3,3.5,3H7V1.5C7,1.2,6.8,1,6.5,1h-5C1.2,1,1,1.2,1,1.5v5C1,6.8,1.2,7,1.5,7H3V3.5z"/>
</svg>
