<?xml version="1.0" encoding="UTF-8"?>
<svg version="1.1" id="Layer_1" xmlns="http://www.w3.org/2000/svg" xmlns:xlink="http://www.w3.org/1999/xlink" x="0px" y="0px" viewBox="0 0 32 32" style="enable-background:new 0 0 32 32;" xml:space="preserve">
<style type="text/css" xml:space="preserve">
	.Blue{fill:#1177D7;}
	.Green{fill:#039C23;}
</style>
<path class="Blue" d="M9,8h11V3c0-0.6-0.4-1-1-1H3C2.4,2,2,2.4,2,3v16c0,0.6,0.4,1,1,1h5V9C8,8.4,8.4,8,9,8z"/>
<path class="Blue" d="M17,20h3v-3c0-0.6,0.4-1,1-1h5v-5c0-0.6-0.4-1-1-1H11c-0.6,0-1,0.4-1,1v16c0,0.6,0.4,1,1,1h5v-7  &#9;C16,20.4,16.4,20,17,20z"/>
<polygon class="Green" points="30,22 26,22 26,18 22,18 22,22 18,22 18,26 22,26 22,30 26,30 26,26 30,26 "/>
</svg>
