<?xml version="1.0" encoding="UTF-8"?>
<svg version="1.1" id="Layer_1" xmlns="http://www.w3.org/2000/svg" xmlns:xlink="http://www.w3.org/1999/xlink" x="0px" y="0px" viewBox="0 0 32 32" style="enable-background:new 0 0 32 32;" xml:space="preserve">
<style type="text/css" xml:space="preserve">
	.Blue{fill:#1177D7}
	.Green{fill:#039C23}
</style>
<path class="Blue" d="M15,18h3v-3c0-0.6,0.4-1,1-1h7V5c0-0.6-0.4-1-1-1H5C4.4,4,4,4.4,4,5v20c0,0.6,0.4,1,1,1h9v-7  &#9;C14,18.4,14.4,18,15,18z"/>
<polygon class="Green" points="28,20 24,20 24,16 20,16 20,20 16,20 16,24 20,24 20,28 24,28 24,24 28,24 "/>
</svg>
