<svg version="1.1" id="Layer_1" xmlns="http://www.w3.org/2000/svg" xmlns:xlink="http://www.w3.org/1999/xlink" x="0px" y="0px"
	 viewBox="-463 265 32 32" style="enable-background:new -463 265 32 32;" xml:space="preserve">
<style type="text/css">
	.Black{fill:#3F3F3F;}
	.st0{opacity:0.4;}
</style>
<g class="st0" transform="matrix(0, 1, -1, 0, -166, 728)">
  <rect x="-443" y="267" class="Black" width="4" height="2"></rect>
  <polygon class="Black" points="-437,267 -437,269 -435,269 -435,271 -433,271 -433,267 	"></polygon>
  <rect x="-455" y="267" class="Black" width="4" height="2"></rect>
  <rect x="-435" y="273" class="Black" width="2" height="4"></rect>
  <polygon class="Black" points="-459,269 -457,269 -457,267 -461,267 -461,271 -459,271 	"></polygon>
  <rect x="-443" y="293" class="Black" width="4" height="2"></rect>
  <rect x="-461" y="285" class="Black" width="2" height="4"></rect>
  <polygon class="Black" points="-435,293 -437,293 -437,295 -433,295 -433,291 -435,291 	"></polygon>
  <rect x="-435" y="279" class="Black" width="2" height="4"></rect>
  <rect x="-455" y="293" class="Black" width="4" height="2"></rect>
  <rect x="-449" y="267" class="Black" width="4" height="2"></rect>
  <rect x="-461" y="279" class="Black" width="2" height="4"></rect>
  <polygon class="Black" points="-459,291 -461,291 -461,295 -457,295 -457,293 -459,293 	"></polygon>
  <rect x="-461" y="273" class="Black" width="2" height="4"></rect>
  <rect x="-449" y="293" class="Black" width="4" height="2"></rect>
  <rect x="-435" y="285" class="Black" width="2" height="4"></rect>
</g>
<rect x="-449" y="269" class="Black" width="4" height="24" transform="matrix(0, 1, -1, 0, -166, 728)"></rect>
<polygon class="Black" points="-446 272 -446 270 -450 274 -446 278 -446 276 -444 276 -444 272" transform="matrix(0, 1, -1, 0, -173, 721)"></polygon>
<polygon class="Black" points="-448 286 -448 284 -444 288 -448 292 -448 290 -450 290 -450 286" transform="matrix(0, 1, -1, 0, -159, 735)"></polygon>
</svg>