<?xml version="1.0" encoding="utf-8"?>
<svg version="1.1" xmlns="http://www.w3.org/2000/svg" xmlns:xlink="http://www.w3.org/1999/xlink" viewBox="0 0 32 32">
<style type="text/css">
	.Blue{fill:#1177D7;}
</style>
<g id="Multiline" transform="matrix(0.5, 0, 0, 0.5, 2, 2)">
  
<path class="Blue" d="M 1.898 25.97 L 17.092 25.97 L 17.092 25.27 L 17.092 17.97 L 27.945 27.97 L 17.092 37.97 L 17.092 30.67 L 17.092 29.97 L 1.898 29.97 L 1.898 25.97 Z" style="" transform="matrix(-1, 0, 0, -1, 29.842996, 55.939998)"/>
  <path class="Blue" d="M 26.059 30.011 L 26.059 44.011 L 25.359 44.011 L 18.059 44.011 L 28.059 54.011 L 38.059 44.011 L 30.759 44.011 L 30.059 44.011 L 30.059 30.011 L 26.059 30.011 Z"/>
  <path class="Blue" d="M 25.967 27.547 L 25.967 13.547 L 25.267 13.547 L 17.967 13.547 L 27.967 3.547 L 37.967 13.547 L 30.667 13.547 L 29.967 13.547 L 29.967 27.547 L 25.967 27.547 Z"/>
  <path class="Blue" d="M 28.029 26.026 L 43.223 26.026 L 43.223 25.326 L 43.223 18.026 L 54.076 28.026 L 43.223 38.026 L 43.223 30.726 L 43.223 30.026 L 28.029 30.026 L 28.029 26.026 Z"/>
</g>
</svg>
