<svg version="1.1" id="Layer_1" xmlns="http://www.w3.org/2000/svg" xmlns:xlink="http://www.w3.org/1999/xlink" x="0px" y="0px"
	 viewBox="0 0 16 16" style="enable-background:new 0 0 16 16;" xml:space="preserve">
<style type="text/css">
	.Blue{fill:#3575BB;}
	.Black{fill:#727272;}
</style>
<path class="Blue" d="M8,4H4.5C4.2,4,4,4.2,4,4.5V8H2.5C2.2,8,2,7.8,2,7.5v-5C2,2.2,2.2,2,2.5,2h5C7.8,2,8,2.2,8,2.5V4z M7.1,9.9
	C6.8,9.6,6.7,9.3,6.7,8.9s0.2-0.8,0.5-1.1l0.7-0.7c0.3-0.3,0.7-0.5,1.1-0.5s0.8,0.2,1.1,0.5L11,8.2V5.5C11,5.2,10.8,5,10.5,5H5v5.5
	C5,10.8,5.2,11,5.5,11h2.7L7.1,9.9z"/>
<path class="Black" d="M14.2,12.8L12.4,11l1.8-1.8c0.2-0.2,0.2-0.5,0-0.7l-0.7-0.7c-0.2-0.2-0.5-0.2-0.7,0L11,9.6L9.2,7.8
	C9,7.6,8.7,7.6,8.5,7.8L7.8,8.5C7.6,8.7,7.6,9,7.8,9.2L9.6,11l-1.8,1.8c-0.2,0.2-0.2,0.5,0,0.7l0.7,0.7c0.2,0.2,0.5,0.2,0.7,0
	l1.8-1.8l1.8,1.8c0.2,0.2,0.5,0.2,0.7,0l0.7-0.7C14.4,13.3,14.4,13,14.2,12.8z"/>
</svg>
