<?xml version="1.0" encoding="utf-8"?>
<!-- Generator: Adobe Illustrator 24.1.3, SVG Export Plug-In . SVG Version: 6.00 Build 0)  -->
<svg version="1.1" id="Layer_1" xmlns="http://www.w3.org/2000/svg" xmlns:xlink="http://www.w3.org/1999/xlink" x="0px" y="0px"
	 viewBox="0 0 32 32" style="enable-background:new 0 0 32 32;" xml:space="preserve">
<style type="text/css">
	.Red{fill:#D11C1C;}
	.Black{fill:#727272;}
	.Blue{fill:#1177D7;}
	.Yellow{fill:#FFB115;}
	.st0{opacity:0.5;}
</style>
<g class="st0">
	<path class="Black" d="M6,4h2V2H6V4z M10,4h2V2h-2V4z M14,4h2V2h-2V4z M18,4h2V2h-2V4z M22,4h2V2h-2V4z M26,8h2V6h-2V8z M26,12h2
		v-2h-2V12z M26,16h2v-2h-2V16z M26,20h2v-2h-2V20z M26,24h2v-2h-2V24z M22,28h2v-2h-2V28z M18,28h2v-2h-2V28z M14,28h2v-2h-2V28z
		 M10,28h2v-2h-2V28z M6,28h2v-2H6V28z M2,24h2v-2H2V24z M2,20h2v-2H2V20z M2,16h2v-2H2V16z M2,12h2v-2H2V12z M2,8h2V6H2V8z M14,8h2
		V6h-2V8z M14,12h2v-2h-2V12z M14,16h2v-2h-2V16z M14,20h2v-2h-2V20z M14,24h2v-2h-2V24z M18,16h2v-2h-2V16z M22,16h2v-2h-2V16z
		 M10,16h2v-2h-2V16z M6,16h2v-2H6V16z"/>
</g>
<path class="Black" d="M28,4V2H3C2.45,2,2,2.45,2,3v24c0,0.55,0.45,1,1,1h25v-2H4V16h24v-2H4V4H28z"/>
</svg>
