<?xml version="1.0" encoding="utf-8"?>
<!-- Generator: Adobe Illustrator 24.1.3, SVG Export Plug-In . SVG Version: 6.00 Build 0)  -->
<svg version="1.1" id="Layer_1" xmlns="http://www.w3.org/2000/svg" xmlns:xlink="http://www.w3.org/1999/xlink" x="0px" y="0px"
	 viewBox="0 0 32 32" style="enable-background:new 0 0 32 32;" xml:space="preserve">
<style type="text/css">
	.Red{fill:#D11C1C;}
	.Black{fill:#727272;}
	.Blue{fill:#1177D7;}
	.Yellow{fill:#FFB115;}
	.st0{opacity:0.5;}
</style>
<path class="Black" d="M29,0H3C2.4,0,2,0.4,2,1v28c0,0.6,0.4,1,1,1h26c0.6,0,1-0.4,1-1V1C30,0.4,29.6,0,29,0z M28,28H4V2h24V28z"/>
<path class="Blue" d="M12,8H8V6h4V8z M24,6H14v2h10V6z M12,10H8v2h4V10z M24,10H14v2h10V10z M12,14H8v2h4V14z M24,14H14v2h10V14z
	 M12,18H8v2h4V18z M24,18H14v2h10V18z M12,22H8v2h4V22z M24,22H14v2h10V22z"/>
</svg>
