<?xml version="1.0" encoding="utf-8"?>
<svg version="1.1" id="Quick_Print" xmlns="http://www.w3.org/2000/svg" xmlns:xlink="http://www.w3.org/1999/xlink" x="0px" y="0px" viewBox="0 0 32 32">
<style type="text/css">
	.Black{fill:#727272;}
	.Yellow{fill:#FFB115;}
</style>
  <g id="FolderClose" transform="matrix(1, 0, 0, 1, -4, -4.88702)">
    <g>
      <path class="Yellow" d="M27,10H14V7c0-0.5-0.5-1-1-1H5C4.5,6,4,6.5,4,7v18c0,0.5,0.5,1,1,1h22c0.5,0,1-0.5,1-1V11
			C28,10.5,27.5,10,27,10z"></path>
    </g>
    <g>
      <path class="Yellow" d="M27,10H14V7c0-0.5-0.5-1-1-1H5C4.5,6,4,6.5,4,7v18c0,0.5,0.5,1,1,1h22c0.5,0,1-0.5,1-1V11
			C28,10.5,27.5,10,27,10z"></path>
    </g>
  </g>
  <path class="Black" d="M 13.31 9.86 L 23.294 9.86 L 23.294 15.721 L 24.957 15.721 L 24.957 8.395 L 11.647 8.395 L 11.647 15.721 L 13.31 15.721 L 13.31 9.86 Z M 28.285 14.256 L 26.621 14.256 L 26.621 16.453 C 26.621 16.893 26.289 17.186 25.789 17.186 L 10.815 17.186 C 10.316 17.186 9.983 16.893 9.983 16.453 L 9.983 14.256 L 8.319 14.256 C 7.404 14.256 6.655 14.915 6.655 15.721 L 6.655 24.511 C 6.655 25.317 7.404 25.976 8.319 25.976 L 11.647 25.976 L 11.647 30.371 L 24.957 30.371 L 24.957 25.976 L 28.285 25.976 C 29.2 25.976 29.949 25.317 29.949 24.511 L 29.949 15.721 C 29.949 14.915 29.2 14.256 28.285 14.256 Z M 23.294 24.511 L 23.294 25.976 L 23.294 28.906 L 13.31 28.906 L 13.31 25.976 L 13.31 24.511 L 13.31 21.581 L 23.294 21.581 L 23.294 24.511 Z M 21.63 25.976 L 14.974 25.976 L 14.974 27.441 L 21.63 27.441 L 21.63 25.976 Z M 21.63 23.046 L 14.974 23.046 L 14.974 24.511 L 21.63 24.511 L 21.63 23.046 Z" style=""></path>
</svg>