<?xml version="1.0" encoding="utf-8"?>
<svg x="0px" y="0px" viewBox="0 0 32 32" version="1.1" xmlns="http://www.w3.org/2000/svg" xmlns:xlink="http://www.w3.org/1999/xlink" enable-background="new 0 0 32 32">
  <style type="text/css">
	.Green{fill:#039C23;stroke-width:0.5;stroke:White}
	.Blue{fill:#1177D7;}
</style>
  <path style="opacity:0.5" class="Blue" d="M 29.453 14 L 17.453 14 C 16.853 14 16.453 13.52 16.453 12.8 L 16.453 3.2 C 16.453 2.48 16.853 2 17.453 2 L 29.453 2 C 30.053 2 30.453 2.48 30.453 3.2 L 30.453 12.8 C 30.453 13.52 30.053 14 29.453 14 Z" />
  <path style="opacity:0.5" class="Blue" d="M 14.267 14 L 2.267 14 C 1.667 14 1.267 13.52 1.267 12.8 L 1.267 3.2 C 1.267 2.48 1.667 2 2.267 2 L 14.267 2 C 14.867 2 15.267 2.48 15.267 3.2 L 15.267 12.8 C 15.267 13.52 14.867 14 14.267 14 Z" />
  <path style="opacity:0.5" class="Blue" d="M 29.453 27.422 L 17.453 27.422 C 16.853 27.422 16.453 26.942 16.453 26.222 L 16.453 16.622 C 16.453 15.902 16.853 15.422 17.453 15.422 L 29.453 15.422 C 30.053 15.422 30.453 15.902 30.453 16.622 L 30.453 26.222 C 30.453 26.942 30.053 27.422 29.453 27.422 Z"/>
  <path style="opacity:0.5" class="Blue" d="M 14.267 27.422 L 2.267 27.422 C 1.667 27.422 1.267 26.942 1.267 26.222 L 1.267 16.622 C 1.267 15.902 1.667 15.422 2.267 15.422 L 14.267 15.422 C 14.867 15.422 15.267 15.902 15.267 16.622 L 15.267 26.222 C 15.267 26.942 14.867 27.422 14.267 27.422 Z" />
  <polygon class="Green" points="23.599 25.25 17.857 19.362 21.684 19.362 21.684 12.001 6.372 23.778 6.372 19.362 6.372 4.64 10.201 4.64 10.201 16.417 25.513 4.64 25.513 19.362 29.341 19.362"></polygon>
</svg>