<svg id="Layer_4" data-name="Layer 4" xmlns="http://www.w3.org/2000/svg" viewBox="0 0 32 32"><defs><style>.Blue{fill:#1177d7;}.Green{fill:#039c23;}.Yellow{fill:#ffb115;}.Red{fill:#d11c1c;}</style></defs><path class="Blue" d="M31.64,19.35a15.43,15.43,0,0,1-.87,2.8l-5.54-2.3-5.54-2.31a4.37,4.37,0,0,0,.22-.7l5.87,1.25Zm-5.77-4.87a9.77,9.77,0,0,0-1.06-3.22l5.28-2.85a16.08,16.08,0,0,0-8.35-7.33L19.59,6.67a10,10,0,0,0-1.8-.5l-1.08,5.9a4.27,4.27,0,0,1,.72.21,4,4,0,0,1,2.08,1.83,4,4,0,0,1,.43,1.28Z"/><path class="Green" d="M16.77,26l.46,6c-.41,0-.82.06-1.23.06A16,16,0,0,1,4.17,26.75l4.44-4,4.44-4A4,4,0,0,0,16,20l.31,0a4,4,0,0,0,3.38-2.43l5.54,2.31A10,10,0,0,1,16.77,26Z"/><path class="Yellow" d="M13.05,18.68l-4.44,4a9.88,9.88,0,0,1-2-3.31L1,21.46A15.68,15.68,0,0,1,.42,12.4l5.84,1.35,5.85,1.35A3.82,3.82,0,0,0,12,16a4.05,4.05,0,0,0,.25,1.36A3.86,3.86,0,0,0,13.05,18.68Z"/><path class="Red" d="M18.86.27l-1.07,5.9-1.08,5.9A4.17,4.17,0,0,0,16,12a4,4,0,0,0-3.37,1.86L7.57,10.64,2.51,7.42A15.87,15.87,0,0,1,18.86.27ZM6.26,13.75l5.85,1.35a4.11,4.11,0,0,1,.21-.68L6.81,12.06A10.77,10.77,0,0,0,6.26,13.75Z"/></svg>