<?xml version="1.0" encoding="utf-8"?>
<!-- Generator: Adobe Illustrator 26.1.0, SVG Export Plug-In . SVG Version: 6.00 Build 0)  -->
<svg version="1.1" id="Layer_4" xmlns="http://www.w3.org/2000/svg" xmlns:xlink="http://www.w3.org/1999/xlink" x="0px" y="0px"
	 viewBox="0 0 32 32" style="enable-background:new 0 0 32 32;" xml:space="preserve">
<style type="text/css">
	.Yellow{fill:#FFB115;}
	.st0{fill:#727272;}
	.st1{fill:#D11C1C;}
	.st2{fill:#039C23;}
	.st3{fill:#1177D7;}
</style>
<path class="Yellow" d="M16,10c8,8,16,8,16,8v4c0,0-10-1-16-6C7.9,9.2,5,8.1,0.1,8C0.9,8,6.7,8.7,16,18c8,8,16,8,16,8v4
	c0,0-10-1-16-6c-8.2-6.8-11-7.9-16-8l0-8l0-6C0,2,7,1,16,10z"/>
<path class="st2" d="M16,10c-8,8-16,8-16,8v4c0,0,10-1,16-6c8.1-6.8,11-7.9,15.9-8C31.1,8,25.3,8.7,16,18c-8,8-16,8-16,8v4
	c0,0,10-1,16-6c8.2-6.8,11-7.9,16-8V8V2C32,2,25,1,16,10z"/>
</svg>
