<svg id="Layer_4" data-name="Layer 4" xmlns="http://www.w3.org/2000/svg" viewBox="0 0 32 32"><defs><style>.Black{fill:#727272;}.Yellow{fill:#ffb115;}.cls-1{opacity:0.35;}</style></defs><path class="Black" d="M26,4V28H6V4H26m1-2H5A1,1,0,0,0,4,3V29a1,1,0,0,0,1,1H27a1,1,0,0,0,1-1V3a1,1,0,0,0-1-1Z"/><polygon class="Yellow" points="16 11.91 17.31 14.57 20.25 15 18.13 17.07 18.63 20 16 18.62 13.37 20 13.87 17.07 11.75 15 14.69 14.57 16 11.91"/><g class="cls-1"><polygon class="Black" points="20 24 16 28 12 24 20 24"/><polygon class="Black" points="10 20 6 16 10 12 10 20"/><polygon class="Black" points="12 8 16 4 20 8 12 8"/><polygon class="Black" points="22 12 26 16 22 20 22 12"/></g></svg>