<svg id="Layer_4" data-name="Layer 4" xmlns="http://www.w3.org/2000/svg" viewBox="0 0 32 32"><defs><style>.Black,.cls-1{fill:#727272;}.Yellow{fill:#ffb115;}.cls-1{opacity:0.35;}</style></defs><path class="Black" d="M26,4V28H6V4H26m1-2H5A1,1,0,0,0,4,3V29a1,1,0,0,0,1,1H27a1,1,0,0,0,1-1V3a1,1,0,0,0-1-1Z"/><polygon class="Yellow" points="16 11.91 17.31 14.57 20.25 15 18.13 17.07 18.63 20 16 18.62 13.37 20 13.87 17.07 11.75 15 14.69 14.57 16 11.91"/><path class="cls-1" d="M26,8V6H24V4H22V6H10V4H8V6H6V8H8V24H6v2H8v2h2V26H22v2h2V26h2V24H24V8ZM22,24H10V8H22Z"/></svg>