<svg id="Layer_4" data-name="Layer 4" xmlns="http://www.w3.org/2000/svg" viewBox="0 0 32 32"><defs><style>.Black{fill:#727272;}.Yellow{fill:#ffb115;}.cls-1{opacity:0.35;}</style></defs><path class="Black" d="M26,4V28H6V4H26m1-2H5A1,1,0,0,0,4,3V29a1,1,0,0,0,1,1H27a1,1,0,0,0,1-1V3a1,1,0,0,0-1-1Z"/><polygon class="Yellow" points="18.25 11.91 19.57 14.57 22.51 15 20.38 17.07 20.88 20 18.25 18.62 15.63 20 16.13 17.07 14 15 16.94 14.57 18.25 11.91"/><g class="cls-1"><rect class="Black" x="10" y="4" width="2" height="24"/><rect class="Black" x="6" y="8" width="20" height="2"/></g></svg>