<svg version="1.1" id="New" xmlns="http://www.w3.org/2000/svg" xmlns:xlink="http://www.w3.org/1999/xlink" x="0px" y="0px"
	 viewBox="0 0 32 32" style="enable-background:new 0 0 32 32;" xml:space="preserve">
<style type="text/css">
	.Black{fill:#727272;}
	.Blue{fill:#1177D7;}
	.st0{opacity:0.75;}
</style>
<path class="Black" d="M19,2H5C4.4,2,4,2.4,4,3v24c0,0.6,0.4,1,1,1h20c0.6,0,1-0.4,1-1V9L19,2z M24,26H6V4h12v5c0,0.6,0.4,1,1,1h5
	V26z"/>
<g class="st0">
	<path class="Black" d="M17.2,10h-4V8h3.7V10z M22.5,12h-4v2h3.7V12z M17.2,12h-4v2h3.7V12z M17.2,16h-4v2h3.7V16z M22.5,16h-4v2h3.7V16
		z M22.5,20h-4v2h3.7V20z M17.2,20h-4v2h3.7V20z"/>
</g>
<path class="Blue" d="M12,10H8V8h3.7V10z M12,12H8v2h3.7V12z M12,16H8v2h3.7V16z M12,20H8v2h3.7V20z"/>
</svg>
