<svg id="Layer_4" data-name="Layer 4" xmlns="http://www.w3.org/2000/svg" viewBox="0 0 32 32"><defs><style>.Black{fill:#727272;}.Blue{fill:#1177d7;}</style></defs><path class="Black" d="M20,2H8A2,2,0,0,0,6,4V20H26V8Zm3.17,6H20V4.83ZM24,18H8V4H18V8a2,2,0,0,0,2,2h4Z"/><path class="Blue" d="M8,23.88l-1.26.2v-1.6L9.87,22v7.79H8ZM11.69,29a4.56,4.56,0,0,1-.84-3,4.59,4.59,0,0,1,.84-3,3.35,3.35,0,0,1,2.72-1,3.36,3.36,0,0,1,2.72,1A4.54,4.54,0,0,1,18,26a4.5,4.5,0,0,1-.85,3,3.36,3.36,0,0,1-2.72,1A3.35,3.35,0,0,1,11.69,29Zm4-1.21A3.35,3.35,0,0,0,16,26a3.35,3.35,0,0,0-.37-1.78,1.35,1.35,0,0,0-1.23-.58,1.36,1.36,0,0,0-1.24.58A3.35,3.35,0,0,0,12.8,26a3.35,3.35,0,0,0,.37,1.78,1.34,1.34,0,0,0,1.24.58A1.33,1.33,0,0,0,15.64,27.78ZM19.55,29a4.62,4.62,0,0,1-.83-3,4.65,4.65,0,0,1,.83-3,3.37,3.37,0,0,1,2.73-1A3.36,3.36,0,0,1,25,23a4.59,4.59,0,0,1,.85,3A4.56,4.56,0,0,1,25,29a3.36,3.36,0,0,1-2.72,1A3.37,3.37,0,0,1,19.55,29Zm4-1.21A3.35,3.35,0,0,0,23.88,26a3.35,3.35,0,0,0-.37-1.78,1.36,1.36,0,0,0-1.23-.58,1.36,1.36,0,0,0-1.24.58A3.35,3.35,0,0,0,20.67,26,3.35,3.35,0,0,0,21,27.78a1.34,1.34,0,0,0,1.24.58A1.34,1.34,0,0,0,23.51,27.78Z"/></svg>