<?xml version="1.0" encoding="utf-8"?>
<svg version="1.1" id="Layer_1" xmlns="http://www.w3.org/2000/svg" xmlns:xlink="http://www.w3.org/1999/xlink" x="0px" y="0px"
	 viewBox="0 0 32 32" style="enable-background:new 0 0 32 32;" xml:space="preserve">
<style type="text/css">
	.st0{fill:#FFB115;}
</style>
<g id="Database">
	<path class="st0" d="M16,26c-6.9,0-12.5-2.3-12.5-5v5c0,2.8,5.6,5,12.5,5s12.5-2.3,12.5-5v-5C28.5,23.8,22.9,26,16,26z"/>
	<path class="st0" d="M16,18.5c-6.9,0-12.5-2.3-12.5-5v5c0,2.8,5.6,5,12.5,5s12.5-2.3,12.5-5v-5C28.5,16.3,22.9,18.5,16,18.5z"/>
	<path class="st0" d="M16,1C9.1,1,3.5,3.3,3.5,6v5c0,2.8,5.6,5,12.5,5s12.5-2.3,12.5-5V6C28.5,3.3,22.9,1,16,1z"/>
</g>
</svg>
