<?xml version="1.0" encoding="utf-8"?>
<!-- Generator: Adobe Illustrator 23.1.0, SVG Export Plug-In . SVG Version: 6.00 Build 0)  -->
<svg version="1.1" id="Layer_1" xmlns="http://www.w3.org/2000/svg" xmlns:xlink="http://www.w3.org/1999/xlink" x="0px" y="0px"
	 viewBox="0 0 16 16" style="enable-background:new 0 0 16 16;" xml:space="preserve">
<style type="text/css">
	.backcolor{fill:#6B6B6B;}
</style>
<path class="backcolor" d="M14,7c0-3.3-2.7-6-6-6S2,3.7,2,7c0,3,2.2,5.4,5,5.9V14H5c-0.6,0-1,0.4-1,1h8c0-0.6-0.4-1-1-1H9v-1.1
	C11.8,12.4,14,10,14,7z M8,11c-2.2,0-4-1.8-4-4s1.8-4,4-4s4,1.8,4,4S10.2,11,8,11z"/>
<path class="backcolor" d="M8,4C6.3,4,5,5.3,5,7s1.3,3,3,3s3-1.3,3-3S9.7,4,8,4z M8,9C6.9,9,6,8.1,6,7s0.9-2,2-2s2,0.9,2,2
	S9.1,9,8,9z"/>
</svg>
