<svg version="1.1" id="Layer_1" xmlns="http://www.w3.org/2000/svg" xmlns:xlink="http://www.w3.org/1999/xlink" x="0px" y="0px"
	 viewBox="0 0 32 32" style="enable-background:new 0 0 32 32;" xml:space="preserve">
<style type="text/css">
	.Blue{fill:#1177D7;}
	.Black{fill:#727272;}
	.White{fill:#FFFFFF;}
	.st0{opacity:0.2;}
</style>
<path class="Black" d="M27,2H7C6.4,2,6,2.5,6,3v24c0,0.5,0.4,1,1,1h20c0.5,0,1-0.5,1-1V3C28,2.5,27.5,2,27,2z M26,26H8V4h18V26z"/>
<path class="Blue" d="M29,8H5C4.4,8,4,8.4,4,9v10c0,0.6,0.4,1,1,1h24c0.6,0,1-0.4,1-1V9C30,8.4,29.6,8,29,8z M12.5,16.7
	c-0.1,0.3-0.3,0.5-0.6,0.7s-0.5,0.3-0.9,0.4C10.7,17.9,10.4,18,10,18c-0.4,0-0.7,0-1.1-0.1c-0.3-0.1-0.6-0.2-0.9-0.3v-1.7
	c0.3,0.3,0.6,0.5,0.9,0.6s0.7,0.2,1,0.2c0.2,0,0.4,0,0.5-0.1s0.3-0.1,0.4-0.2c0.1-0.1,0.2-0.2,0.2-0.2c0-0.1,0.1-0.2,0.1-0.3
	c0-0.2,0-0.3-0.1-0.4c-0.1-0.1-0.2-0.2-0.3-0.3c-0.1-0.1-0.3-0.2-0.5-0.3c-0.2-0.1-0.4-0.2-0.6-0.3c-0.5-0.3-0.9-0.6-1.2-0.9
	C8.1,13.2,8,12.8,8,12.3c0-0.4,0.1-0.7,0.2-1c0.1-0.3,0.3-0.5,0.6-0.7c0.2-0.2,0.5-0.3,0.9-0.4s0.7-0.1,1-0.1c0.4,0,0.7,0,1,0.1
	c0.3,0,0.5,0.1,0.8,0.2v1.6c-0.1-0.1-0.2-0.2-0.4-0.2c-0.1-0.1-0.3-0.1-0.4-0.2c-0.1,0-0.3-0.1-0.4-0.1c-0.1,0-0.3,0-0.4,0
	c-0.2,0-0.3,0-0.5,0.1c-0.1,0-0.3,0.1-0.4,0.2c-0.1,0.1-0.2,0.1-0.2,0.2c-0.1,0.1-0.1,0.2-0.1,0.3c0,0.1,0,0.2,0.1,0.3
	c0.1,0.1,0.1,0.2,0.3,0.3c0.1,0.1,0.2,0.2,0.4,0.3s0.3,0.2,0.5,0.3c0.3,0.1,0.5,0.3,0.7,0.4c0.2,0.1,0.4,0.3,0.6,0.5
	c0.2,0.2,0.3,0.4,0.4,0.6c0.1,0.2,0.1,0.5,0.1,0.8C12.8,16.1,12.7,16.5,12.5,16.7z M17.3,17.8h-1.8l-2.4-7.7h1.7l1.4,5.4
	c0.1,0.3,0.1,0.5,0.1,0.8h0c0-0.2,0.1-0.5,0.1-0.8l1.4-5.3h1.6L17.3,17.8z M26,17.3c-0.7,0.4-1.5,0.7-2.5,0.7c-1.1,0-2-0.3-2.6-1
	c-0.6-0.7-1-1.6-1-2.8c0-1.2,0.4-2.2,1.1-3c0.7-0.8,1.6-1.1,2.8-1.1c0.7,0,1.4,0.1,1.9,0.3V12c-0.5-0.3-1.2-0.5-2-0.5
	c-0.6,0-1.2,0.2-1.6,0.7c-0.4,0.5-0.6,1.1-0.6,1.9c0,0.8,0.2,1.4,0.5,1.8c0.4,0.4,0.9,0.6,1.5,0.6c0.4,0,0.7-0.1,0.9-0.2v-1.5H23
	v-1.4h3V17.3z"/>
<g class="st0">
	<path class="White" d="M29,8H5C4.4,8,4,8.4,4,9v10c0,0.6,0.4,1,1,1h24c0.6,0,1-0.4,1-1V9C30,8.4,29.6,8,29,8z M12.5,16.7
		c-0.1,0.3-0.3,0.5-0.6,0.7s-0.5,0.3-0.9,0.4C10.7,17.9,10.4,18,10,18c-0.4,0-0.7,0-1.1-0.1c-0.3-0.1-0.6-0.2-0.9-0.3v-1.7
		c0.3,0.3,0.6,0.5,0.9,0.6s0.7,0.2,1,0.2c0.2,0,0.4,0,0.5-0.1s0.3-0.1,0.4-0.2c0.1-0.1,0.2-0.2,0.2-0.2c0-0.1,0.1-0.2,0.1-0.3
		c0-0.2,0-0.3-0.1-0.4c-0.1-0.1-0.2-0.2-0.3-0.3c-0.1-0.1-0.3-0.2-0.5-0.3c-0.2-0.1-0.4-0.2-0.6-0.3c-0.5-0.3-0.9-0.6-1.2-0.9
		C8.1,13.2,8,12.8,8,12.3c0-0.4,0.1-0.7,0.2-1c0.1-0.3,0.3-0.5,0.6-0.7c0.2-0.2,0.5-0.3,0.9-0.4s0.7-0.1,1-0.1c0.4,0,0.7,0,1,0.1
		c0.3,0,0.5,0.1,0.8,0.2v1.6c-0.1-0.1-0.2-0.2-0.4-0.2c-0.1-0.1-0.3-0.1-0.4-0.2c-0.1,0-0.3-0.1-0.4-0.1c-0.1,0-0.3,0-0.4,0
		c-0.2,0-0.3,0-0.5,0.1c-0.1,0-0.3,0.1-0.4,0.2c-0.1,0.1-0.2,0.1-0.2,0.2c-0.1,0.1-0.1,0.2-0.1,0.3c0,0.1,0,0.2,0.1,0.3
		c0.1,0.1,0.1,0.2,0.3,0.3c0.1,0.1,0.2,0.2,0.4,0.3s0.3,0.2,0.5,0.3c0.3,0.1,0.5,0.3,0.7,0.4c0.2,0.1,0.4,0.3,0.6,0.5
		c0.2,0.2,0.3,0.4,0.4,0.6c0.1,0.2,0.1,0.5,0.1,0.8C12.8,16.1,12.7,16.5,12.5,16.7z M17.3,17.8h-1.8l-2.4-7.7h1.7l1.4,5.4
		c0.1,0.3,0.1,0.5,0.1,0.8h0c0-0.2,0.1-0.5,0.1-0.8l1.4-5.3h1.6L17.3,17.8z M26,17.3c-0.7,0.4-1.5,0.7-2.5,0.7c-1.1,0-2-0.3-2.6-1
		c-0.6-0.7-1-1.6-1-2.8c0-1.2,0.4-2.2,1.1-3c0.7-0.8,1.6-1.1,2.8-1.1c0.7,0,1.4,0.1,1.9,0.3V12c-0.5-0.3-1.2-0.5-2-0.5
		c-0.6,0-1.2,0.2-1.6,0.7c-0.4,0.5-0.6,1.1-0.6,1.9c0,0.8,0.2,1.4,0.5,1.8c0.4,0.4,0.9,0.6,1.5,0.6c0.4,0,0.7-0.1,0.9-0.2v-1.5H23
		v-1.4h3V17.3z"/>
</g>
</svg>
