<?xml version="1.0" encoding="utf-8"?>
<svg version="1.1" id="Layer_1" xmlns="http://www.w3.org/2000/svg" xmlns:xlink="http://www.w3.org/1999/xlink" x="0px" y="0px"
	 viewBox="0 0 32 32" style="enable-background:new 0 0 32 32;" xml:space="preserve">
<style type="text/css">
	.st0{fill:#727272;}
</style>
<path class="st0" d="M29,8h-1V3c0-0.5-0.5-1-1-1H7C6.5,2,6,2.5,6,3v5H5C4.4,8,4,8.4,4,9v10c0,0.6,0.4,1,1,1h1v7c0,0.5,0.5,1,1,1h20
	c0.5,0,1-0.5,1-1v-7h1c0.6,0,1-0.4,1-1V9C30,8.4,29.6,8,29,8z M26,4v4H8V4 M19.2,11.5C19.1,12,19,12.3,19,12.6L17.4,18h-1.2
	l-1.6-5.4c0-0.1-0.1-0.5-0.2-1.1l0,0c0,0.8,0.1,1.5,0.1,2.1V18H13v-8h2.2l1.4,4.7c0.1,0.4,0.2,0.8,0.2,1.1l0,0
	c0.1-0.4,0.2-0.8,0.3-1.2l1.4-4.7h2.1v8h-1.5v-4.8C19.1,12.7,19.2,12.1,19.2,11.5L19.2,11.5z M6.1,10l5.3,0l0,1.5l-3.8,0l0,5.1
	l3.9,0l0,1.4L6,18 M7.6,13.4l3.8,0l0,1.3l-3.8,0 M26,26H8v-6h18V26z M22.3,18l0-4.1l0-4.1l5.6,0l0,1.4l-4.1,0l0,2.1h3.4v1.4l-3.3,0
	l0,3.2"/>
</svg>
